#define handarrow_width 16
#define handarrow_height 16
static unsigned char handarrow_bits[] = {
   0x30, 0x00, 0x48, 0x00, 0x48, 0x00, 0x48, 0x00, 0xc8, 0x03, 0x48, 0x0d,
   0x4e, 0x15, 0x0a, 0x24, 0x02, 0x20, 0x04, 0x20, 0x04, 0x20, 0x08, 0x10,
   0x08, 0x10, 0x10, 0x10, 0x10, 0x08, 0xf0, 0x0f };
