#define handarrow_mask_width 16
#define handarrow_mask_height 16
static unsigned char handarrow_mask_bits[] = {
   0x30, 0x00, 0x78, 0x00, 0x78, 0x00, 0x78, 0x00, 0xf8, 0x03, 0xf8, 0x0f,
   0xfe, 0x1f, 0xfe, 0x3f, 0xfe, 0x3f, 0xfc, 0x3f, 0xfc, 0x3f, 0xf8, 0x1f,
   0xf8, 0x1f, 0xf0, 0x1f, 0xf0, 0x0f, 0xf0, 0x0f };
